<?xml version="1.0" encoding="UTF-8" standalone="no"?>
<!-- Created with Inkscape (http://www.inkscape.org/) -->

<svg
   xmlns:dc="http://purl.org/dc/elements/1.1/"
   xmlns:cc="http://creativecommons.org/ns#"
   xmlns:rdf="http://www.w3.org/1999/02/22-rdf-syntax-ns#"
   xmlns:svg="http://www.w3.org/2000/svg"
   xmlns="http://www.w3.org/2000/svg"
   xmlns:sodipodi="http://sodipodi.sourceforge.net/DTD/sodipodi-0.dtd"
   xmlns:inkscape="http://www.inkscape.org/namespaces/inkscape"
   width="494.10004"
   height="222.825"
   id="svg3471"
   version="1.1"
   inkscape:version="0.48.1 r9760"
   sodipodi:docname="New document 5">
  <defs
     id="defs3473">
    <clipPath
       clipPathUnits="userSpaceOnUse"
       id="clipPath3324">
      <path
         inkscape:connector-curvature="0"
         d="m 165,683.52 382.02,0 0,-141 -382.02,0 0,141 z"
         clip-rule="evenodd"
         id="path3326" />
    </clipPath>
    <clipPath
       clipPathUnits="userSpaceOnUse"
       id="clipPath3310">
      <path
         inkscape:connector-curvature="0"
         d="m 165,683.52 382.02,0 0,-141 -382.02,0 0,141 z"
         clip-rule="evenodd"
         id="path3312" />
    </clipPath>
    <clipPath
       clipPathUnits="userSpaceOnUse"
       id="clipPath3290">
      <path
         inkscape:connector-curvature="0"
         d="m 165,683.52 382.02,0 0,-141 -382.02,0 0,141 z"
         clip-rule="evenodd"
         id="path3292" />
    </clipPath>
    <clipPath
       clipPathUnits="userSpaceOnUse"
       id="clipPath3268">
      <path
         inkscape:connector-curvature="0"
         d="m 165,683.52 382.02,0 0,-141 -382.02,0 0,141 z"
         clip-rule="evenodd"
         id="path3270" />
    </clipPath>
    <clipPath
       clipPathUnits="userSpaceOnUse"
       id="clipPath3256">
      <path
         inkscape:connector-curvature="0"
         d="m 165,683.52 382.02,0 0,-141 -382.02,0 0,141 z"
         clip-rule="evenodd"
         id="path3258" />
    </clipPath>
    <clipPath
       clipPathUnits="userSpaceOnUse"
       id="clipPath3242">
      <path
         inkscape:connector-curvature="0"
         d="m 165,683.52 382.02,0 0,-141 -382.02,0 0,141 z"
         clip-rule="evenodd"
         id="path3244" />
    </clipPath>
    <clipPath
       clipPathUnits="userSpaceOnUse"
       id="clipPath3228">
      <path
         inkscape:connector-curvature="0"
         d="m 165,683.52 382.02,0 0,-141 -382.02,0 0,141 z"
         clip-rule="evenodd"
         id="path3230" />
    </clipPath>
    <clipPath
       clipPathUnits="userSpaceOnUse"
       id="clipPath3214">
      <path
         inkscape:connector-curvature="0"
         d="m 165,683.52 382.02,0 0,-141 -382.02,0 0,141 z"
         clip-rule="evenodd"
         id="path3216" />
    </clipPath>
  </defs>
  <sodipodi:namedview
     id="base"
     pagecolor="#ffffff"
     bordercolor="#666666"
     borderopacity="1.0"
     inkscape:pageopacity="0.0"
     inkscape:pageshadow="2"
     inkscape:zoom="0.35"
     inkscape:cx="239.19286"
     inkscape:cy="68.55535"
     inkscape:document-units="px"
     inkscape:current-layer="layer1"
     showgrid="false"
     fit-margin-top="0"
     fit-margin-left="0"
     fit-margin-right="0"
     fit-margin-bottom="0"
     inkscape:window-width="527"
     inkscape:window-height="421"
     inkscape:window-x="352"
     inkscape:window-y="182"
     inkscape:window-maximized="0" />
  <metadata
     id="metadata3476">
    <rdf:RDF>
      <cc:Work
         rdf:about="">
        <dc:format>image/svg+xml</dc:format>
        <dc:type
           rdf:resource="http://purl.org/dc/dcmitype/StillImage" />
        <dc:title></dc:title>
      </cc:Work>
    </rdf:RDF>
  </metadata>
  <g
     inkscape:label="Layer 1"
     inkscape:groupmode="layer"
     id="layer1"
     transform="translate(-135.80714,-35.235399)">
    <path
       inkscape:connector-curvature="0"
       d="m 135.88214,257.76039 0.30001,0 0,-222.225001 -0.30001,0 0,222.225001 z"
       style="fill:#005042;fill-opacity:1;fill-rule:nonzero;stroke:none"
       id="path3200" />
    <path
       inkscape:connector-curvature="0"
       d="m 629.60717,257.76039 0.3,0 0,-222.225001 -0.3,0 0,222.225001 z"
       style="fill:#005042;fill-opacity:1;fill-rule:nonzero;stroke:none"
       id="path3202" />
    <path
       inkscape:connector-curvature="0"
       d="m 135.80714,35.535389 494.10003,0 0,-0.29999 -494.10003,0 0,0.29999 z"
       style="fill:#005042;fill-opacity:1;fill-rule:nonzero;stroke:none"
       id="path3204" />
    <path
       inkscape:connector-curvature="0"
       d="m 135.80714,258.06039 494.10003,0 0,-0.30006 -494.10003,0 0,0.30006 z"
       style="fill:#005042;fill-opacity:1;fill-rule:nonzero;stroke:none"
       id="path3206" />
    <path
       inkscape:connector-curvature="0"
       d="m 533.01717,209.56039 67.1387,0 0,-74.37 -15.4925,0 0,22.725 -36.1525,0 0,-43.38375 -15.4937,0 0,95.02875 z"
       style="fill:#000000;fill-opacity:1;fill-rule:nonzero;stroke:#000000;stroke-width:1.24000001;stroke-linecap:butt;stroke-linejoin:miter;stroke-miterlimit:10;stroke-opacity:1;stroke-dasharray:none"
       id="path3208" />
    <g
       transform="matrix(1.25,0,0,-1.25,-62.117859,904.78533)"
       id="g3210">
      <g
         id="g3212"
         clip-path="url(#clipPath3214)">
        <path
           inkscape:connector-curvature="0"
           d="m 314.972,679.304 45.449,0 0,-59.496 -12.395,0 0,18.179 -20.659,0 0,-34.706 -12.395,0 0,76.023"
           style="fill:#000000;fill-opacity:1;fill-rule:nonzero;stroke:none"
           id="path3218" />
        <path
           inkscape:connector-curvature="0"
           d="m 314.972,679.304 45.449,0 0,-59.496 -12.395,0 0,18.179 -20.659,0 0,-34.706 -12.395,0 0,76.023 z"
           style="fill:none;stroke:#000000;stroke-width:0.99199998;stroke-linecap:butt;stroke-linejoin:miter;stroke-miterlimit:10;stroke-opacity:1;stroke-dasharray:none"
           id="path3220" />
      </g>
    </g>
    <path
       inkscape:connector-curvature="0"
       d="m 186.98839,55.655389 67.14,0 0,74.370001 -15.49375,0 0,-22.72375 -36.1525,0 0,43.3825 -15.49375,0 0,-95.028751"
       style="fill:#000000;fill-opacity:1;fill-rule:nonzero;stroke:none"
       id="path3222" />
    <g
       transform="matrix(1.25,0,0,-1.25,-62.117859,904.78533)"
       id="g3224">
      <g
         id="g3226"
         clip-path="url(#clipPath3228)">
        <path
           inkscape:connector-curvature="0"
           d="m 199.285,679.304 53.712,0 0,-59.496 -12.395,0 0,18.179 -28.922,0 0,-34.706 -12.395,0 0,76.023 z"
           style="fill:none;stroke:#000000;stroke-width:0.99199998;stroke-linecap:butt;stroke-linejoin:miter;stroke-miterlimit:10;stroke-opacity:1;stroke-dasharray:none"
           id="path3232" />
      </g>
    </g>
    <path
       inkscape:connector-curvature="0"
       d="m 264.45714,209.56039 56.81125,0 0,-74.37 -15.49375,0 0,22.725 -25.82375,0 0,-43.38375 -15.49375,0 0,95.02875 z"
       style="fill:#000000;fill-opacity:1;fill-rule:nonzero;stroke:#000000;stroke-width:1.24000001;stroke-linecap:butt;stroke-linejoin:miter;stroke-miterlimit:10;stroke-opacity:1;stroke-dasharray:none"
       id="path3234" />
    <path
       inkscape:connector-curvature="0"
       d="m 398.73714,209.56039 56.81,0 0,-74.37 -15.49375,0 0,22.725 -25.8225,0 0,-43.38375 -15.49375,0 0,95.02875 z"
       style="fill:#000000;fill-opacity:1;fill-rule:nonzero;stroke:#000000;stroke-width:1.24000001;stroke-linecap:butt;stroke-linejoin:miter;stroke-miterlimit:10;stroke-opacity:1;stroke-dasharray:none"
       id="path3236" />
    <g
       transform="matrix(1.25,0,0,-1.25,-62.117859,904.78533)"
       id="g3238">
      <g
         id="g3240"
         clip-path="url(#clipPath3242)">
        <path
           inkscape:connector-curvature="0"
           d="m 422.396,679.304 45.448,0 0,-59.496 -12.395,0 0,18.179 -20.658,0 0,-34.706 -12.395,0 0,76.023"
           style="fill:#000000;fill-opacity:1;fill-rule:nonzero;stroke:none"
           id="path3246" />
        <path
           inkscape:connector-curvature="0"
           d="m 422.396,679.304 45.448,0 0,-59.496 -12.395,0 0,18.179 -20.658,0 0,-34.706 -12.395,0 0,76.023 z"
           style="fill:none;stroke:#000000;stroke-width:0.99199998;stroke-linecap:butt;stroke-linejoin:miter;stroke-miterlimit:10;stroke-opacity:1;stroke-dasharray:none"
           id="path3248" />
      </g>
    </g>
    <path
       inkscape:connector-curvature="0"
       d="m 144.63839,124.86164 474.10878,0 0,-12.3955 -474.10878,0 0,12.3955 z"
       style="fill:#ffffff;fill-opacity:1;fill-rule:nonzero;stroke:none"
       id="path3250" />
    <g
       transform="matrix(1.25,0,0,-1.25,-62.117859,904.78533)"
       id="g3252">
      <g
         id="g3254"
         clip-path="url(#clipPath3256)">
        <path
           inkscape:connector-curvature="0"
           d="m 165.405,633.856 379.287,0 0,-9.9164 -379.287,0 0,9.9164 z"
           style="fill:none;stroke:#000000;stroke-width:0.5;stroke-linecap:butt;stroke-linejoin:miter;stroke-miterlimit:10;stroke-opacity:1;stroke-dasharray:none"
           id="path3260" />
      </g>
    </g>
    <path
       inkscape:connector-curvature="0"
       d="m 144.63839,145.51914 474.10878,0 0,-12.39488 -474.10878,0 0,12.39488 z"
       style="fill:#ffffff;fill-opacity:1;fill-rule:nonzero;stroke:none"
       id="path3262" />
    <g
       transform="matrix(1.25,0,0,-1.25,-62.117859,904.78533)"
       id="g3264">
      <g
         id="g3266"
         clip-path="url(#clipPath3268)">
        <path
           inkscape:connector-curvature="0"
           d="m 165.405,617.329 379.287,0 0,-9.9159 -379.287,0 0,9.9159 z"
           style="fill:none;stroke:#000000;stroke-width:0.5;stroke-linecap:butt;stroke-linejoin:miter;stroke-miterlimit:10;stroke-opacity:1;stroke-dasharray:none"
           id="path3272" />
      </g>
    </g>
    <text
       style="font-size:14.67232704px"
       y="224.39902"
       x="641.54816"
       transform="matrix(0.9999917,0,-0.21255782,1.0000083,0,0)"
       id="text3274">
      <tspan
         style="font-size:7.50031185px;font-variant:normal;font-weight:normal;writing-mode:lr-tb;fill:#000000;fill-opacity:1;fill-rule:nonzero;stroke:none;font-family:Helvetica;-inkscape-font-specification:Helvetica"
         x="641.54816 647.79596 651.96613 655.71625 659.88641 664.05658"
         y="224.39902"
         sodipodi:role="line"
         id="tspan3276">mbc645</tspan>
    </text>
    <text
       style="font-size:15px"
       y="121.73912"
       x="149.66051"
       id="text3278">
      <tspan
         style="font-size:8.74537563px;font-variant:normal;font-weight:normal;writing-mode:lr-tb;fill:#000000;fill-opacity:1;fill-rule:nonzero;stroke:none;font-family:Helvetica;-inkscape-font-specification:Helvetica"
         x="149.66051 155.4937 161.80785"
         y="121.73912"
         sodipodi:role="line"
         id="tspan3280">SDA</tspan>
      <tspan
         style="font-size:8.74537563px;font-variant:normal;font-weight:normal;writing-mode:lr-tb;fill:#000000;fill-opacity:1;fill-rule:nonzero;stroke:none;font-family:Helvetica;-inkscape-font-specification:Helvetica"
         x="149.66051 155.4937 161.80785"
         y="142.14561"
         sodipodi:role="line"
         id="tspan3282">SCL</tspan>
    </text>
    <path
       inkscape:connector-curvature="0"
       d="m 190.08714,51.524139 67.14,0 0,75.402501 -15.49375,0 0,-22.72375 -36.1525,0 0,43.3825 -15.49375,0 0,-96.061251"
       style="fill:#ffffff;fill-opacity:1;fill-rule:nonzero;stroke:none"
       id="path3284" />
    <g
       transform="matrix(1.25,0,0,-1.25,-62.117859,904.78533)"
       id="g3286">
      <g
         id="g3288"
         clip-path="url(#clipPath3290)">
        <path
           inkscape:connector-curvature="0"
           d="m 201.764,682.609 53.712,0 0,-60.322 -12.395,0 0,18.179 -28.922,0 0,-34.706 -12.395,0 0,76.849 z"
           style="fill:none;stroke:#000000;stroke-width:0.5;stroke-linecap:butt;stroke-linejoin:miter;stroke-miterlimit:10;stroke-opacity:1;stroke-dasharray:none"
           id="path3294" />
      </g>
    </g>
    <text
       style="font-size:15px"
       y="61.97942"
       x="194.11613"
       id="text3296">
      <tspan
         style="font-size:8.74537563px;font-variant:normal;font-weight:normal;writing-mode:lr-tb;fill:#000000;fill-opacity:1;fill-rule:nonzero;stroke:none;font-family:Helvetica;-inkscape-font-specification:Helvetica"
         x="194.11613 201.40105 203.83226 210.14641 216.46056 223.26451 225.69572"
         y="61.97942"
         sodipodi:role="line"
         id="tspan3298">MICRO -</tspan>
      <tspan
         style="font-size:8.74537563px;font-variant:normal;font-weight:normal;writing-mode:lr-tb;fill:#000000;fill-opacity:1;fill-rule:nonzero;stroke:none;font-family:Helvetica;-inkscape-font-specification:Helvetica"
         x="194.11613 200.43028 207.23424 213.54839 218.89177 225.20598 232.00987 236.8723 241.73473 247.56786"
         y="72.599777"
         sodipodi:role="line"
         id="tspan3300">CONTROLLER</tspan>
      <tspan
         style="font-size:8.74537563px;font-variant:normal;font-weight:normal;writing-mode:lr-tb;fill:#000000;fill-opacity:1;fill-rule:nonzero;stroke:none;font-family:Helvetica;-inkscape-font-specification:Helvetica"
         x="194.11613"
         y="83.220139"
         id="tspan3302">A</tspan>
    </text>
    <path
       inkscape:connector-curvature="0"
       d="m 241.73339,111.43289 15.49375,0 m -67.14,20.65875 15.49375,0"
       style="fill:none;stroke:#000000;stroke-width:0.375;stroke-linecap:butt;stroke-linejoin:miter;stroke-miterlimit:10;stroke-opacity:1;stroke-dasharray:none"
       id="path3304" />
    <g
       transform="matrix(1.25,0,0,-1.25,-62.117859,904.78533)"
       id="g3306">
      <g
         id="g3308"
         clip-path="url(#clipPath3310)">
        <path
           inkscape:connector-curvature="0"
           d="m 317.451,682.609 45.448,0 0,-60.322 -12.394,0 0,18.179 -20.659,0 0,-34.706 -12.395,0 0,76.849"
           style="fill:#ffffff;fill-opacity:1;fill-rule:nonzero;stroke:none"
           id="path3314" />
        <path
           inkscape:connector-curvature="0"
           d="m 317.451,682.609 45.448,0 0,-60.322 -12.394,0 0,18.179 -20.659,0 0,-34.706 -12.395,0 0,76.849 z"
           style="fill:none;stroke:#000000;stroke-width:0.5;stroke-linecap:butt;stroke-linejoin:miter;stroke-miterlimit:10;stroke-opacity:1;stroke-dasharray:none"
           id="path3316" />
      </g>
    </g>
    <path
       inkscape:connector-curvature="0"
       d="m 376.01339,111.43289 15.4925,0 m -56.81,20.65875 15.49375,0"
       style="fill:none;stroke:#000000;stroke-width:0.375;stroke-linecap:butt;stroke-linejoin:miter;stroke-miterlimit:10;stroke-opacity:1;stroke-dasharray:none"
       id="path3318" />
    <g
       transform="matrix(1.25,0,0,-1.25,-62.117859,904.78533)"
       id="g3320">
      <g
         id="g3322"
         clip-path="url(#clipPath3324)">
        <path
           inkscape:connector-curvature="0"
           d="m 424.875,682.609 45.448,0 0,-60.322 -12.395,0 0,18.179 -20.658,0 0,-34.706 -12.395,0 0,76.849"
           style="fill:#ffffff;fill-opacity:1;fill-rule:nonzero;stroke:none"
           id="path3328" />
        <path
           inkscape:connector-curvature="0"
           d="m 424.875,682.609 45.448,0 0,-60.322 -12.395,0 0,18.179 -20.658,0 0,-34.706 -12.395,0 0,76.849 z"
           style="fill:none;stroke:#000000;stroke-width:0.5;stroke-linecap:butt;stroke-linejoin:miter;stroke-miterlimit:10;stroke-opacity:1;stroke-dasharray:none"
           id="path3330" />
      </g>
    </g>
    <path
       inkscape:connector-curvature="0"
       d="m 510.29217,111.43289 15.4937,0 m -56.80998,20.65875 15.49375,0"
       style="fill:none;stroke:#000000;stroke-width:0.375;stroke-linecap:butt;stroke-linejoin:miter;stroke-miterlimit:10;stroke-opacity:1;stroke-dasharray:none"
       id="path3332" />
    <text
       style="font-size:15px"
       y="61.97942"
       x="473.96713"
       id="text3334">
      <tspan
         style="font-size:8.74537563px;font-variant:normal;font-weight:normal;writing-mode:lr-tb;fill:#000000;fill-opacity:1;fill-rule:nonzero;stroke:none;font-family:Helvetica;-inkscape-font-specification:Helvetica"
         x="473.96713 479.80032 485.14371 490.9769 496.32034 498.75156"
         y="61.97942"
         sodipodi:role="line"
         id="tspan3336">STATIC</tspan>
      <tspan
         style="font-size:8.74537563px;font-variant:normal;font-weight:normal;writing-mode:lr-tb;fill:#000000;fill-opacity:1;fill-rule:nonzero;stroke:none;font-family:Helvetica;-inkscape-font-specification:Helvetica"
         x="473.96713 480.28128 486.11447 493.39938 495.83054 502.63443"
         y="72.599777"
         sodipodi:role="line"
         id="tspan3338">RAM OR</tspan>
      <tspan
         style="font-size:8.74537563px;font-variant:normal;font-weight:normal;writing-mode:lr-tb;fill:#000000;fill-opacity:1;fill-rule:nonzero;stroke:none;font-family:Helvetica;-inkscape-font-specification:Helvetica"
         x="473.96713 479.80032 485.63345 491.46664 497.78073 504.58469"
         y="83.220139"
         sodipodi:role="line"
         id="tspan3340">EEPROM</tspan>
      <tspan
         style="font-size:8.74537563px;font-variant:normal;font-weight:normal;writing-mode:lr-tb;fill:#000000;fill-opacity:1;fill-rule:nonzero;stroke:none;font-family:Helvetica;-inkscape-font-specification:Helvetica"
         x="340.60019 345.46262 351.77676"
         y="61.97942"
         sodipodi:role="line"
         id="tspan3342">LCD</tspan>
      <tspan
         style="font-size:8.74537563px;font-variant:normal;font-weight:normal;writing-mode:lr-tb;fill:#000000;fill-opacity:1;fill-rule:nonzero;stroke:none;font-family:Helvetica;-inkscape-font-specification:Helvetica"
         x="340.60019 346.91434 353.22849 355.6597 361.49289 367.32602"
         y="72.599777"
         sodipodi:role="line"
         id="tspan3344">DRIVER</tspan>
    </text>
    <path
       inkscape:connector-curvature="0"
       d="m 267.55714,206.46164 56.81,0 0,-75.4025 -15.49375,0 0,22.72375 -25.8225,0 0,-43.3825 -15.49375,0 0,96.06125 z"
       style="fill:#ffffff;fill-opacity:1;fill-rule:nonzero;stroke:#000000;stroke-width:0.625;stroke-linecap:butt;stroke-linejoin:miter;stroke-miterlimit:10;stroke-opacity:1;stroke-dasharray:none"
       id="path3346" />
    <path
       inkscape:connector-curvature="0"
       d="m 308.87339,146.55164 15.49375,0 m -56.81,-20.6575 15.49375,0"
       style="fill:none;stroke:#000000;stroke-width:0.375;stroke-linecap:butt;stroke-linejoin:miter;stroke-miterlimit:10;stroke-opacity:1;stroke-dasharray:none"
       id="path3348" />
    <text
       style="font-size:15px"
       y="190.97362"
       x="272.82413"
       id="text3350">
      <tspan
         style="font-size:8.74537563px;font-variant:normal;font-weight:normal;writing-mode:lr-tb;fill:#000000;fill-opacity:1;fill-rule:nonzero;stroke:none;font-family:Helvetica;-inkscape-font-specification:Helvetica"
         x="272.82413 279.62802 285.46121 290.80466"
         y="190.97362"
         sodipodi:role="line"
         id="tspan3352">GATE</tspan>
      <tspan
         style="font-size:8.74537563px;font-variant:normal;font-weight:normal;writing-mode:lr-tb;fill:#000000;fill-opacity:1;fill-rule:nonzero;stroke:none;font-family:Helvetica;-inkscape-font-specification:Helvetica"
         x="272.82413 278.65732 284.97147 291.28561 297.1188"
         y="201.59404"
         sodipodi:role="line"
         id="tspan3354">ARRAY</tspan>
    </text>
    <path
       inkscape:connector-curvature="0"
       d="m 401.83589,206.46164 56.81125,0 0,-75.4025 -15.49375,0 0,22.72375 -25.8225,0 0,-43.3825 -15.495,0 0,96.06125 z"
       style="fill:#ffffff;fill-opacity:1;fill-rule:nonzero;stroke:#000000;stroke-width:0.625;stroke-linecap:butt;stroke-linejoin:miter;stroke-miterlimit:10;stroke-opacity:1;stroke-dasharray:none"
       id="path3356" />
    <path
       inkscape:connector-curvature="0"
       d="m 443.15339,146.55164 15.49375,0 m -56.81125,-20.6575 15.495,0"
       style="fill:none;stroke:#000000;stroke-width:0.375;stroke-linecap:butt;stroke-linejoin:miter;stroke-miterlimit:10;stroke-opacity:1;stroke-dasharray:none"
       id="path3358" />
    <path
       inkscape:connector-curvature="0"
       d="m 536.11587,206.46164 67.14,0 0,-75.4025 -15.495,0 0,22.72375 -36.1512,0 0,-43.3825 -15.4938,0 0,96.06125 z"
       style="fill:#ffffff;fill-opacity:1;fill-rule:nonzero;stroke:#000000;stroke-width:0.625;stroke-linecap:butt;stroke-linejoin:miter;stroke-miterlimit:10;stroke-opacity:1;stroke-dasharray:none"
       id="path3360" />
    <path
       inkscape:connector-curvature="0"
       d="m 587.76087,146.55164 15.495,0 m -67.14,-20.6575 15.4938,0"
       style="fill:none;stroke:#000000;stroke-width:0.375;stroke-linecap:butt;stroke-linejoin:miter;stroke-miterlimit:10;stroke-opacity:1;stroke-dasharray:none"
       id="path3362" />
    <text
       style="font-size:15px"
       y="200.44792"
       x="407.64853"
       id="text3364">
      <tspan
         style="font-size:8.74537563px;font-variant:normal;font-weight:normal;writing-mode:lr-tb;fill:#000000;fill-opacity:1;fill-rule:nonzero;stroke:none;font-family:Helvetica;-inkscape-font-specification:Helvetica"
         x="407.64853 413.48166 419.79587"
         y="200.44792"
         sodipodi:role="line"
         id="tspan3366">ADC</tspan>
      <tspan
         style="font-size:8.74537563px;font-variant:normal;font-weight:normal;writing-mode:lr-tb;fill:#000000;fill-opacity:1;fill-rule:nonzero;stroke:none;font-family:Helvetica;-inkscape-font-specification:Helvetica"
         x="540.28613 547.57104 550.00232 556.31641 562.63062 569.43445 571.86572"
         y="181.49931"
         sodipodi:role="line"
         id="tspan3368">MICRO -</tspan>
      <tspan
         style="font-size:8.74537563px;font-variant:normal;font-weight:normal;writing-mode:lr-tb;fill:#000000;fill-opacity:1;fill-rule:nonzero;stroke:none;font-family:Helvetica;-inkscape-font-specification:Helvetica"
         x="540.28613 546.60034 553.40417 559.71838 565.06177 571.37598 578.17981 583.04224 587.90479 593.73792"
         y="192.11967"
         sodipodi:role="line"
         id="tspan3370">CONTROLLER</tspan>
      <tspan
         style="font-size:8.74537563px;font-variant:normal;font-weight:normal;writing-mode:lr-tb;fill:#000000;fill-opacity:1;fill-rule:nonzero;stroke:none;font-family:Helvetica;-inkscape-font-specification:Helvetica"
         x="540.28613"
         y="202.74004"
         id="tspan3372">B</tspan>
    </text>
  </g>
</svg>
